<?xml version="1.0" ?><!DOCTYPE svg  PUBLIC '-//W3C//DTD SVG 1.1//EN'  'http://www.w3.org/Graphics/SVG/1.1/DTD/svg11.dtd'><svg height="100%" style="fill-rule:evenodd;clip-rule:evenodd;stroke-linejoin:round;stroke-miterlimit:2;" version="1.1" viewBox="0 0 24 24" width="100%" xmlSpace="preserve" xmlns="http://www.w3.org/2000/svg" xmlnsSerif="http://www.serif.com/" xmlnsXlink="http://www.w3.org/1999/xlink"><g id="Icon"><path d="M12,3.25l-5,0c-1.26,-0 -2.468,0.5 -3.359,1.391c-0.891,0.891 -1.391,2.099 -1.391,3.359c0,2.713 0,6.287 0,9c-0,1.26 0.5,2.468 1.391,3.359c0.891,0.891 2.099,1.391 3.359,1.391c2.713,0 6.287,0 9,0c1.26,0 2.468,-0.5 3.359,-1.391c0.891,-0.891 1.391,-2.099 1.391,-3.359c0,-2.404 0,-5 0,-5c0,-0.414 -0.336,-0.75 -0.75,-0.75c-0.414,-0 -0.75,0.336 -0.75,0.75c0,-0 0,2.596 0,5c0,0.862 -0.342,1.689 -0.952,2.298c-0.609,0.61 -1.436,0.952 -2.298,0.952c-2.713,0 -6.287,0 -9,0c-0.862,0 -1.689,-0.342 -2.298,-0.952c-0.61,-0.609 -0.952,-1.436 -0.952,-2.298c0,-2.713 0,-6.287 0,-9c-0,-0.862 0.342,-1.689 0.952,-2.298c0.609,-0.61 1.436,-0.952 2.298,-0.952l5,0c0.414,0 0.75,-0.336 0.75,-0.75c0,-0.414 -0.336,-0.75 -0.75,-0.75Z"/><path d="M7.47,11.227l8.171,-8.172c1.074,-1.073 2.815,-1.073 3.889,0c0.455,0.456 0.959,0.96 1.415,1.415c1.073,1.074 1.073,2.815 -0,3.889c-2.667,2.666 -8.172,8.171 -8.172,8.171c-0.141,0.141 -0.331,0.22 -0.53,0.22l-4.243,0c-0.414,0 -0.75,-0.336 -0.75,-0.75l0,-4.243c-0,-0.199 0.079,-0.389 0.22,-0.53Zm7.287,-5.166l-6.007,6.007l0,3.182l3.182,0l6.007,-6.007l-3.182,-3.182Zm4.243,2.121l0.884,-0.884c0.488,-0.488 0.488,-1.28 -0,-1.768c-0.455,-0.455 -0.959,-0.959 -1.414,-1.414c-0.488,-0.488 -1.28,-0.488 -1.768,0l-0.884,0.884l3.182,3.182Z"/></g></svg>